<svg id="icons" enable-background="new 0 0 64 64" height="512" viewBox="0 0 64 64" width="512" xmlns="http://www.w3.org/2000/svg"><path d="m32.01 16.995v9h-17-14.01v-9h14.01z" fill="#94c1ff"/><path d="m32.01 34.995v9h-17-14.01v-9h14.01z" fill="#94c1ff"/><path d="m63 8.005v8.99h-13.99v-8.961-.029z" fill="#94c1ff"/><path d="m1 53.024h14.01v2.971h-14.01z" fill="#5c9eff"/><path d="m1 8.005h14.01v8.99h-14.01z" fill="#94c1ff"/><path d="m49.01 16.995h13.99v9h-13.99-17v-9z" fill="#94c1ff"/><path d="m1 25.995h14.01v9h-14.01z" fill="#94c1ff"/><path d="m49.01 8.034v8.961h-17-17v-8.99h34z" fill="#94c1ff"/><path d="m32.01 25.995h17v.029 8.971h-17-17v-9z" fill="#94c1ff"/><path d="m15.01 53.024h34v2.971h-34z" fill="#5c9eff"/><path d="m63 25.995v9h-13.99v-8.971-.029z" fill="#94c1ff"/><path d="m49.01 53.024h13.99v2.971h-13.99z" fill="#5c9eff"/><path d="m49.01 34.995h13.99v9h-13.99-17v-9z" fill="#94c1ff"/><path d="m32.01 43.995h17v.029 9h-34v-9.029z" fill="#94c1ff"/><path d="m63 43.995v9.029h-13.99v-9-.029z" fill="#94c1ff"/><path d="m1 43.995h14.01v9.029h-14.01z" fill="#94c1ff"/><g fill="#116fff"><path d="m63 35.982h-62c-.553 0-1-.447-1-1s.447-1 1-1h62c.553 0 1 .447 1 1s-.447 1-1 1z"/><path d="m63 44.981h-62c-.553 0-1-.447-1-1s.447-1 1-1h62c.553 0 1 .447 1 1s-.447 1-1 1z"/><path d="m49.016 57.015c-.553 0-1-.447-1-1v-12.002c0-.553.447-1 1-1s1 .447 1 1v12.002c0 .552-.448 1-1 1z"/><path d="m15.016 56.983c-.553 0-1-.447-1-1v-12.002c0-.553.447-1 1-1s1 .447 1 1v12.002c0 .553-.448 1-1 1z"/><path d="m63 26.983h-62c-.553 0-1-.447-1-1s.447-1 1-1h62c.553 0 1 .447 1 1s-.447 1-1 1z"/><path d="m49.016 36.014c-.553 0-1-.447-1-1v-8.999c0-.553.447-1 1-1s1 .447 1 1v8.999c0 .552-.448 1-1 1z"/><path d="m15.016 35.982c-.553 0-1-.447-1-1v-8.999c0-.553.447-1 1-1s1 .447 1 1v8.999c0 .553-.448 1-1 1z"/><path d="m63 8.985h-62c-.553 0-1-.447-1-1s.447-1 1-1h62c.553 0 1 .447 1 1s-.447 1-1 1z"/><path d="m49.016 18.016c-.553 0-1-.447-1-1v-8.999c0-.553.447-1 1-1s1 .447 1 1v8.999c0 .552-.448 1-1 1z"/><path d="m15.016 17.984c-.553 0-1-.447-1-1v-8.999c0-.553.447-1 1-1s1 .447 1 1v8.999c0 .553-.448 1-1 1z"/><path d="m63 56.984h-62c-.553 0-1-.447-1-1s.447-1 1-1h62c.553 0 1 .447 1 1s-.447 1-1 1z"/><path d="m63 54.012h-62c-.553 0-1-.447-1-1s.447-1 1-1h62c.553 0 1 .447 1 1s-.447 1-1 1z"/><path d="m32.015 44.985c-.553 0-1-.447-1-1v-9.005c0-.553.447-1 1-1s1 .447 1 1v9.005c0 .553-.448 1-1 1z"/><path d="m63 17.984h-62c-.553 0-1-.447-1-1s.447-1 1-1h62c.553 0 1 .447 1 1s-.447 1-1 1z"/><path d="m32.015 26.987c-.553 0-1-.447-1-1v-9.005c0-.553.447-1 1-1s1 .447 1 1v9.005c0 .553-.448 1-1 1z"/></g></svg>