<svg height="368pt" viewBox="0 0 368 368" width="368pt" xmlns="http://www.w3.org/2000/svg"><g fill="#cce4ff"><path d="m264 232h96v64h-96zm0 0"/><path d="m264 72h96v64h-96zm0 0"/><path d="m136 296h96v64h-96zm0 0"/><path d="m184 232v-96h-176v96zm0 0"/><path d="m136 72v-64h-128v64zm0 0"/></g><path d="m360 0h-352c-4.425781 0-8 3.585938-8 8v352c0 4.414062 3.574219 8 8 8h352c4.425781 0 8-3.585938 8-8v-352c0-4.414062-3.574219-8-8-8zm-216 16h80v48h-80zm112 64v48h-144v-48zm-240-64h112v48h-112zm0 64h80v48h-80zm0 64h160v80h-160zm240 96v48h-144v-48zm-240 0h80v48h-80zm112 112h-112v-48h112zm96 0h-80v-48h80zm128 0h-112v-48h112zm0-64h-80v-48h80zm0-64h-160v-80h160zm0-96h-80v-48h80zm0-64h-112v-48h112zm0 0" fill="#007aff"/></svg>